<svg xmlns="http://www.w3.org/2000/svg" version="1.1" xmlns:xlink="http://www.w3.org/1999/xlink" xmlns:svgjs="http://svgjs.dev/svgjs" width="2000" height="1247" viewBox="0 0 2000 1247"><g transform="matrix(1,0,0,1,-1.2121212121212466,0.504858299595071)"><svg viewBox="0 0 396 247" data-background-color="#ffffff" preserveAspectRatio="xMidYMid meet" height="1247" width="2000" xmlns="http://www.w3.org/2000/svg" xmlns:xlink="http://www.w3.org/1999/xlink"><g id="tight-bounds" transform="matrix(1,0,0,1,0.2400000000000091,-0.09999999999999432)"><svg viewBox="0 0 395.52 247.2" height="247.2" width="395.52"><g><svg></svg></g><g><svg viewBox="0 0 395.52 247.2" height="247.2" width="395.52"><g transform="matrix(1,0,0,1,107.63342382300408,47.215199999999996)"><svg viewBox="0 0 180.25315235399182 152.7696" height="152.7696" width="180.25315235399182"><g><svg viewBox="0 0 244.43135999999998 207.1624302099427" height="152.7696" width="180.25315235399182"><g transform="matrix(1,0,0,1,0,154.0127652070227)"><svg viewBox="0 0 244.43135999999998 53.149665002919996" height="53.149665002919996" width="244.43135999999998"><g id="textblocktransform"><svg viewBox="0 0 244.43135999999998 53.149665002919996" height="53.149665002919996" width="244.43135999999998" id="textblock"><g><svg viewBox="0 0 244.43135999999998 53.149665002919996" height="53.149665002919996" width="244.43135999999998"><g transform="matrix(1,0,0,1,0,0)"><svg width="244.43135999999998" viewBox="-0.800000011920929 -32.15999984741211 205.4600067138672 44.68000030517578" height="53.149665002919996" data-palette-color="#152232"><path d="M14.14-30.92Q16.24-30.92 19.76-29.98 23.28-29.04 24.34-29.04 25.4-29.04 26.6-30 27.8-30.96 28.72-30.96L28.72-30.96Q29.08-30.96 29.3-30.56 29.52-30.16 29.48-29.82 29.44-29.48 29.44-29.44L29.44-29.44Q28.16-29.44 26.44-26.36L26.44-26.36Q25.16-24.12 23.34-20.26 21.52-16.4 20.76-14.84L20.76-14.84Q22.84-14.92 23.56-14.92L23.56-14.92Q23.96-14.92 23.9-14.44 23.84-13.96 23.3-13.96 22.76-13.96 22.34-13.92 21.92-13.88 21.26-13.84 20.6-13.8 20.2-13.76L20.2-13.76Q15.12-3.72 10.28-0.12L10.28-0.12Q11.52 0.44 15.58 2.44 19.64 4.44 21.92 5.3 24.2 6.16 25.44 6.16 26.68 6.16 27.4 5.94 28.12 5.72 28.52 5.4L28.52 5.4Q29.32 4.76 29.6 4L29.6 4Q30.24 4 30.24 5L30.24 5Q30.24 6.68 28.76 7.7 27.28 8.72 25.36 8.72 23.44 8.72 21.04 7.84 18.64 6.96 17.1 6.12 15.56 5.28 12.5 3.4 9.44 1.52 8.56 1L8.56 1Q6.12 2.28 3.8 2.28L3.8 2.28Q0.44 2.28-0.52 0.52L-0.52 0.52Q-0.8 0.04-0.8-0.54-0.8-1.12-0.04-1.82 0.72-2.52 2.66-2.52 4.6-2.52 8.56-0.84L8.56-0.84Q12.2-3.92 17-13.36L17-13.36Q15.08-13.12 13.62-13.12 12.16-13.12 12-14.08L12-14.08Q12.04-14.68 12.48-14.8L12.48-14.8Q12.68-14.56 14.08-14.56 15.48-14.56 17.68-14.68L17.68-14.68Q18.28-15.84 19.48-18.26 20.68-20.68 21.36-22L21.36-22Q23.12-25.56 24.64-27.72L24.64-27.72Q23.76-27.52 22.74-27.52 21.72-27.52 18.16-28.48 14.6-29.44 12.8-29.44L12.8-29.44Q8.24-29.44 6.36-25.68L6.36-25.68Q5.4-23.8 5.4-22.26 5.4-20.72 5.68-19.6L5.68-19.6Q6.4-16.88 8.28-16.44L8.28-16.44 8.92-16.36Q8.72-15.44 7.6-15.44L7.6-15.44Q5.24-15.44 4.2-18.16L4.2-18.16Q3.72-19.52 3.72-21.12 3.72-22.72 4.44-24.64L4.44-24.64Q6.04-28.8 10.16-30.24L10.16-30.24Q12.04-30.92 14.14-30.92ZM0.32-0.36L0.32-0.36Q0.32 0.36 1.32 0.78 2.32 1.2 3.84 1.2 5.36 1.2 7.12 0.16L7.12 0.16Q3.68-1.52 2.18-1.52 0.68-1.52 0.36-0.68L0.36-0.68Q0.32-0.52 0.32-0.36ZM40.72 3L40.72 3Q41.2 3 41.62 2.58 42.04 2.16 42.4 1.28L42.4 1.28Q42.44 0.92 42.88 0.92 43.32 0.92 43.22 1.28 43.12 1.64 42.9 2.16 42.68 2.68 41.98 3.54 41.28 4.4 40.56 4.4L40.56 4.4Q38.96 4.4 38.08 2.4L38.08 2.4Q37.16 0.4 37.16-2.54 37.16-5.48 37.6-8.6L37.6-8.6 37.24-8.6Q32.4-0.16 29.8-0.16L29.8-0.16Q26.72-0.16 26.72-4.86 26.72-9.56 28.72-14.24L28.72-14.24Q30.92-19.4 32.6-19.4L32.6-19.4Q33.32-19.4 33.32-18.52L33.32-18.52Q31.64-14.08 30.44-9.88 29.24-5.68 29.24-3.62 29.24-1.56 30.2-1.56L30.2-1.56Q30.88-1.56 32.22-3.2 33.56-4.84 34.96-7.2L34.96-7.2Q37.96-12.28 39.54-15.84 41.12-19.4 42.8-19.4L42.8-19.4Q43.6-19.4 43.6-18.52L43.6-18.52Q41.04-13.44 39.96-6.4L39.96-6.4Q39.52-3.6 39.52-0.92L39.52-0.92Q39.52 3 40.72 3ZM58.44-11.48L58.44-11.48Q56.92-11.48 56.92-14.8L56.92-14.8Q56.92-16.68 57.64-18.32L57.64-18.32Q54.92-15.96 51.56-9.54 48.2-3.12 48.2-1.16L48.2-1.16Q48.2-0.68 47.56-0.68L47.56-0.68Q46.4-0.68 46.4-3.84L46.4-3.84Q46.4-9.8 47.6-14.64 48.8-19.48 50.52-19.48L50.52-19.48Q51.28-19.48 51.28-18.6L51.28-18.6Q49.44-12.76 48.64-6.64L48.64-6.64 48.92-6.64Q52.16-14.12 56.08-18.32L56.08-18.32Q58.32-20.72 60.16-20.72L60.16-20.72Q60.56-20.72 60.82-20.48 61.08-20.24 61.08-19.88L61.08-19.88Q60.8-19.6 60.4-19.04 60-18.48 59.32-16.38 58.64-14.28 58.64-11.8L58.64-11.8Q58.64-11.48 58.44-11.48ZM75.03 3L75.03 3Q75.51 3 75.93 2.58 76.35 2.16 76.71 1.28L76.71 1.28Q76.75 0.92 77.19 0.92 77.63 0.92 77.53 1.28 77.43 1.64 77.21 2.16 76.99 2.68 76.29 3.54 75.59 4.4 74.87 4.4L74.87 4.4Q73.27 4.4 72.39 2.4L72.39 2.4Q71.47 0.4 71.47-2.54 71.47-5.48 71.91-8.6L71.91-8.6 71.55-8.6Q66.71-0.16 64.11-0.16L64.11-0.16Q61.03-0.16 61.03-4.86 61.03-9.56 63.03-14.24L63.03-14.24Q65.23-19.4 66.91-19.4L66.91-19.4Q67.63-19.4 67.63-18.52L67.63-18.52Q65.95-14.08 64.75-9.88 63.55-5.68 63.55-3.62 63.55-1.56 64.51-1.56L64.51-1.56Q65.19-1.56 66.53-3.2 67.87-4.84 69.27-7.2L69.27-7.2Q72.27-12.28 73.85-15.84 75.43-19.4 77.11-19.4L77.11-19.4Q77.91-19.4 77.91-18.52L77.91-18.52Q75.35-13.44 74.27-6.4L74.27-6.4Q73.83-3.6 73.83-0.92L73.83-0.92Q73.83 3 75.03 3ZM105.47 0.56L105.47 0.56Q103.51-1.32 103.51-5.08L103.51-5.08Q103.51-9.28 106.27-13.76L106.27-13.76Q107.79-16.24 110.39-17.84 112.99-19.44 116.07-19.44L116.07-19.44Q117.43-19.44 118.99-18.96L118.99-18.96Q122.03-23.96 123.95-26.2 125.87-28.44 127.27-29.6L127.27-29.6Q130.43-32.16 133.67-32.16L133.67-32.16Q134.31-32.16 134.31-31.52L134.31-31.52Q131.67-25.72 130.25-19.82 128.83-13.92 128.05-8.34 127.27-2.76 127.27 1.12L127.27 1.12Q127.27 1.68 126.71 1.68L126.71 1.68Q125.31 1.68 125.31-1.52L125.31-1.52Q125.31-5.56 124.55-8.84L124.55-8.84Q123.15-15.08 119.67-17.08L119.67-17.08Q119.23-16.24 118.01-13.88 116.79-11.52 116.21-10.42 115.63-9.32 114.49-7.34 113.35-5.36 112.55-4.16L112.55-4.16Q110.63-1.28 108.39 0.88L108.39 0.88Q108.79 1 109.35 1L109.35 1Q112.71 1 114.91-1.22 117.11-3.44 117.95-6.48L117.95-6.48Q118.07-6.92 118.59-6.88L118.59-6.88Q118.91-6.84 118.83-6.56L118.83-6.56Q117.95-3.12 115.49-0.54 113.03 2.04 109.31 2.04L109.31 2.04Q108.47 2.04 107.43 1.76L107.43 1.76Q103.75 4.72 99.59 4.72L99.59 4.72Q94.19 4.72 91.91 0.48L91.91 0.48Q90.67-1.8 90.67-4.44L90.67-4.44Q90.67-5.84 91.03-7.36L91.03-7.36Q91.99-11.48 94.95-13.24L94.95-13.24Q96.43-14.12 98.19-14.12L98.19-14.12Q98.75-14.12 99.11-13.78 99.47-13.44 99.63-12.72L99.63-12.72Q97.27-12.72 95.39-11.04L95.39-11.04Q92.23-8.28 92.23-3.2L92.23-3.2Q92.23-0.12 94.09 1.62 95.95 3.36 99.09 3.36 102.23 3.36 105.47 0.56ZM116.03-18L116.03-18Q112.67-18 109.99-15.8 107.31-13.6 106.07-10.66 104.83-7.72 104.83-4.72 104.83-1.72 106.35-0.16L106.35-0.16Q107.87-1.6 109.59-3.94 111.31-6.28 112.31-7.88 113.31-9.48 115.43-13.08 117.55-16.68 118.19-17.72L118.19-17.72Q117.23-18 116.03-18ZM131.59-30.6L131.59-30.6Q128.39-29.76 125.75-26.64 123.11-23.52 120.35-18.36L120.35-18.36Q124.23-16.24 125.79-9.88L125.79-9.88Q126.51-16.68 128.13-22.38 129.75-28.08 131.59-30.6ZM131.31 12.52L131.31 12.52Q129.27 12.52 129.27 10.08L129.27 10.08Q129.27 8.36 130.35 5.36 131.43 2.36 132.51 0.16L132.51 0.16Q134.47-3.68 135.31-5.12L135.31-5.12Q136.23-13.72 136.95-17.44L136.95-17.44Q135.99-17.32 135.03-17.32 134.07-17.32 133.87-18.32L133.87-18.32Q133.87-19.12 134.35-19.24L134.35-19.24Q134.51-19 135.51-19 136.51-19 137.31-19.08L137.31-19.08Q139.91-31.04 146.19-31.04L146.19-31.04Q146.99-31.04 146.95-30.44L146.95-30.44Q146.91-30.04 146.67-30.04L146.67-30.04Q143.95-30.04 142.31-27.2 140.67-24.36 139.67-19.24L139.67-19.24Q144.43-19.6 145.47-19.6L145.47-19.6Q145.83-19.6 145.77-19.12 145.71-18.64 144.95-18.64 144.19-18.64 139.39-17.84L139.39-17.84Q138.87-14.88 138.29-9.24 137.71-3.6 137.35-0.64 136.99 2.32 136.51 4.56 136.03 6.8 135.35 8.68L135.35 8.68Q133.95 12.52 131.31 12.52ZM131.35 11.36L131.35 11.36Q132.59 11.36 133.23 9.28L133.23 9.28Q133.95 7 134.27 4.52L134.27 4.52Q134.75 0.8 135.11-3.12L135.11-3.12Q132.11 3.24 131.47 5.28L131.47 5.28Q130.39 8.72 130.39 10.04 130.39 11.36 131.35 11.36ZM147.39-24.6L147.39-24.6Q146.91-24.6 146.87-25.4L146.87-25.4Q146.87-27.92 147.73-30.04 148.59-32.16 149.87-32.16L149.87-32.16Q150.35-32.16 150.35-31.56L150.35-31.56Q150.07-31.12 149.83-30.76 149.59-30.4 149.33-29.92 149.07-29.44 148.79-28.84 148.51-28.24 148.27-27.64L148.27-27.64Q147.75-26.32 147.75-25.08L147.75-25.08Q147.75-24.6 147.39-24.6ZM158.1-11.48L158.1-11.48Q156.58-11.48 156.58-14.8L156.58-14.8Q156.58-16.68 157.3-18.32L157.3-18.32Q154.58-15.96 151.22-9.54 147.86-3.12 147.86-1.16L147.86-1.16Q147.86-0.68 147.22-0.68L147.22-0.68Q146.06-0.68 146.06-3.84L146.06-3.84Q146.06-9.8 147.26-14.64 148.46-19.48 150.18-19.48L150.18-19.48Q150.94-19.48 150.94-18.6L150.94-18.6Q149.1-12.76 148.3-6.64L148.3-6.64 148.58-6.64Q151.82-14.12 155.74-18.32L155.74-18.32Q157.98-20.72 159.82-20.72L159.82-20.72Q160.22-20.72 160.48-20.48 160.74-20.24 160.74-19.88L160.74-19.88Q160.46-19.6 160.06-19.04 159.66-18.48 158.98-16.38 158.3-14.28 158.3-11.8L158.3-11.8Q158.3-11.48 158.1-11.48ZM161.74-3.4L161.74-3.4Q161.74-9.32 162.96-13.96 164.18-18.6 166.06-18.6L166.06-18.6Q166.98-18.6 166.98-17.6L166.98-17.6Q166.58-16.56 165.98-14.84 165.38-13.12 164.4-8.62 163.42-4.12 163.42-0.6L163.42-0.6Q163.42-0.04 162.82-0.04L162.82-0.04Q161.74-0.04 161.74-3.4ZM167.58-23.04L167.1-22.36Q166.26-22.36 166.26-23.96L166.26-23.96Q166.26-24.92 166.78-25.98 167.3-27.04 168.26-27.04L168.26-27.04Q169.06-27.04 169.06-26.12L169.06-26.12Q169.06-25.2 167.58-23.04L167.58-23.04ZM181.74-12.44L181.74-12.44Q183.06-14.56 183.06-16.42 183.06-18.28 181.9-18.28L181.9-18.28Q180.5-18.28 178.72-15.82 176.94-13.36 175.56-10.24 174.18-7.12 173.22-4.46 172.26-1.8 172.26-1.24L172.26-1.24Q172.22-0.76 171.7-0.76L171.7-0.76Q170.5-0.76 170.5-3.96L170.5-3.96Q170.5-10.32 171.78-16.74 173.06-23.16 174.82-27.02 176.58-30.88 178.1-30.88L178.1-30.88Q178.74-30.88 178.74-30.24L178.74-30.24Q176.62-25.56 175.06-18.84L175.06-18.84Q173.78-13.64 172.9-7.68L172.9-7.68 173.22-7.68Q177.78-19.4 182.34-19.4L182.34-19.4Q185.18-19.4 185.18-16.16L185.18-16.16Q185.18-14.08 183.64-11.76 182.1-9.44 179.74-8.68L179.74-8.68Q180.22-8.24 181.7-3.2L181.7-3.2Q182.22-1.4 183.14 0.08 184.06 1.56 185.12 1.56 186.18 1.56 186.7 0.8L186.7 0.8Q186.94 0.8 186.94 1 186.94 1.2 186.74 1.6L186.74 1.6Q185.86 2.8 184.58 2.92L184.58 2.92Q182.94 2.92 181.5 1.24 180.06-0.44 179.26-2.44 178.46-4.44 177.76-6.42 177.06-8.4 176.9-8.64L176.9-8.64Q176.62-8.84 176.54-9.12L176.54-9.12Q179.7-9.12 181.74-12.44ZM191.02 0L191.02 0Q187.74 0 187.74-5.16L187.74-5.16Q187.74-8.24 189.26-11.92L189.26-11.92Q191.38-17.08 194.82-18.96L194.82-18.96Q196.3-19.76 197.58-19.76 198.86-19.76 199.6-19.2 200.34-18.64 200.54-18.08L200.54-18.08 200.78-17.56Q200.66-16.88 200.1-16.88L200.1-16.88Q199.46-16.88 199.36-17.18 199.26-17.48 199.14-17.7 199.02-17.92 198.58-18.3 198.14-18.68 197.58-18.68L197.58-18.68Q194.98-18.68 192.86-14L192.86-14Q190.46-8.6 190.46-3.84L190.46-3.84Q190.46-1.44 191.42-1.44L191.42-1.44Q192.18-1.44 193.56-3.14 194.94-4.84 196.46-7.4L196.46-7.4Q199.1-11.8 200.74-15.04L200.74-15.04Q202.1-17.92 203.54-17.92L203.54-17.92Q204.3-17.92 204.3-17L204.3-17Q203.94-16.24 203.38-14.84 202.82-13.44 201.9-9.28 200.98-5.12 200.98-1 200.98 3.12 202.22 3.12L202.22 3.12Q202.7 3.12 203.1 2.7 203.5 2.28 203.82 1.44L203.82 1.44Q203.94 1 204.38 1L204.38 1Q204.54 1 204.62 1.12 204.7 1.24 204.62 1.52 204.54 1.8 204.34 2.3 204.14 2.8 203.48 3.64 202.82 4.48 202.1 4.48L202.1 4.48Q200.42 4.48 199.52 2.28 198.62 0.08 198.62-2.92 198.62-5.92 199.06-8.68L199.06-8.68 198.66-8.68Q193.58 0 191.02 0Z" opacity="1" transform="matrix(1,0,0,1,0,0)" fill="#152232" class="wordmark-text-0" data-fill-palette-color="primary" id="text-0"></path></svg></g></svg></g></svg></g></svg></g><g transform="matrix(1,0,0,1,57.75665771171798,0)"><svg viewBox="0 0 128.91804457656403 128.91804457656403" height="128.91804457656403" width="128.91804457656403"><g><svg></svg></g><g id="icon-0"><svg viewBox="0 0 128.91804457656403 128.91804457656403" height="128.91804457656403" width="128.91804457656403"><g><path d="M0 64.459c0-35.6 28.859-64.459 64.459-64.459 35.6 0 64.459 28.859 64.459 64.459 0 35.6-28.859 64.459-64.459 64.459-35.6 0-64.459-28.859-64.459-64.459zM64.459 124.125c32.953 0 59.666-26.713 59.666-59.666 0-32.953-26.713-59.666-59.666-59.666-32.953 0-59.666 26.713-59.666 59.666 0 32.953 26.713 59.666 59.666 59.666z" data-fill-palette-color="accent" fill="#5ebc67" stroke="transparent"></path></g><g transform="matrix(1,0,0,1,34.92013725843485,27.60956545206193)"><svg viewBox="0 0 59.07777005969433 73.69891367244017" height="73.69891367244017" width="59.07777005969433"><g><svg xmlns="http://www.w3.org/2000/svg" xmlns:xlink="http://www.w3.org/1999/xlink" version="1.1" x="0" y="0" viewBox="16.95870590209961 9 67.04129028320312 83.6333236694336" style="enable-background:new 0 0 100 100;" xml:space="preserve" height="73.69891367244017" width="59.07777005969433" class="icon-s-0" data-fill-palette-color="accent" id="s-0"><g fill="#5ebc67" data-fill-palette-color="accent"><path d="M80.3 67c-3.4-3.1-5.6-7.5-5.6-12.5 0-3.1-1.5-18.6-12.8-18.9-9.1 0-8.6 2.1-17.1 2.1-4.6 0-8.3-3.7-8.3-8.3 0-1.7 0.5-3.4 1.5-4.7 2.5-0.7 4.5-2.7 5.2-5.3 10.1-0.6 17.7 7.3 21.4 6.4 1.3-0.3 0.8-0.6 0.7-0.5-1.1 0.3-2.9-0.9-10.1-5.8-2-1.4-4-2.3-5.9-2.8 9.1 0.7 16.5 6.1 20 4.8 1.4-0.6 0.9-0.8 0.8-0.7-1.2 0.5-3.6-0.7-12.6-5.4-7.5-4-13.9-3-18.5-1.6-0.1 0-0.1-0.1-0.2-0.1-1.9-1.3-3.5-0.7-4.4-1.2-0.8-0.4-3.9-2-5.3-2.9C28.6 9.3 28.1 9 27.5 9c-1.2 0-2.3 1.2-2.3 2.4 0 0.2 0.5 1.5 0.5 1.5 0.7 2.3 1.7 4.3 2.9 5.9-4.1 4.1-6.6 9.9-6.6 16.3 0 5.8 2.1 11.1 5.6 15.1-3.4 3.4-8.5 8.9-9.4 9.8-1.3 1.3-1.6 4.2-0.8 5.1 0.6 0.6 11.5 10.3 12.7 11.5 0.4 0.4 0.7 0.1 1-0.1 0.3-0.2 0.5-0.8 0.5-0.8-0.5-0.3-9.2-8.6-10.4-9.8-1.3-1.3-1.8-3.3 1.5-5.3 2.2-1.4 7.2-3.4 10.3-4.7 1.4 4.4 3.8 11.7 5.2 15 2.1 4.9 5.2 21.3 5.6 21.6 0.4 0.3 1.1 0 1.4 0 0.3 0-3.4-18.7-4.1-19.3-1.8-1.8-1.7-12.8-0.7-17.7 3 1.2 6.3 1.8 9.7 1.8 2.9 0 5.8-0.5 8.4-1.4 2.5 4.9 5.7 11.2 6.2 12 0.7 1.3 1.4 3.6 0 7.3-1.4 3.7-7.5 16.9-7.1 17.2 0.3 0.3 1.2 0 1.2 0s10.2-19.7 10.8-21.1c0.8-1.6 1-2.1 0.4-3.1-1.7-3.1-2.4-6.4-2.3-9.7C72 65.1 77.9 68 79 70.4c1.3 3.1 3.3 21.7 3.6 22 0.3 0.3 1.4 0 1.4 0S81.8 68.3 80.3 67z" fill="#5ebc67" data-fill-palette-color="accent"></path></g></svg></g></svg></g></svg></g></svg></g><g></g></svg></g></svg></g><g><path d="M169.671 37.962A90.127 90.127 0 0 1 225.849 37.962L222.314 37.962A86.592 86.592 0 0 0 173.206 37.962L169.671 37.962M169.671 209.238A90.127 90.127 0 0 0 225.849 209.238L222.314 209.238A86.592 86.592 0 0 1 173.206 209.238L169.671 209.238" fill="#5ebc67" stroke="transparent" data-fill-palette-color="tertiary"></path></g></svg></g><defs></defs></svg><rect width="395.52" height="247.2" fill="none" stroke="none" visibility="hidden"></rect></g></svg></g></svg>